<mxfile host="app.diagrams.net" modified="2024-01-07T16:46:24.853Z" agent="Mozilla/5.0 (Windows NT 10.0; Win64; x64) AppleWebKit/537.36 (KHTML, like Gecko) Chrome/120.0.0.0 Safari/537.36" etag="HU6nTJjv4x_29mKeFveK" version="22.1.17" type="device">
  <diagram name="Pagina-1" id="ktUSksA7A65I0feHBJkn">
    <mxGraphModel dx="2219" dy="579" grid="1" gridSize="10" guides="1" tooltips="1" connect="1" arrows="1" fold="1" page="1" pageScale="1" pageWidth="1169" pageHeight="827" math="0" shadow="0">
      <root>
        <mxCell id="0" />
        <mxCell id="1" parent="0" />
        <mxCell id="1_Ex-PggShJAfTCzqo_c-1" value="" style="ellipse;whiteSpace=wrap;html=1;aspect=fixed;strokeWidth=1;fillColor=#f5f5f5;strokeColor=#666666;fontColor=#333333;" parent="1" vertex="1">
          <mxGeometry x="830" y="530" width="40" height="40" as="geometry" />
        </mxCell>
        <mxCell id="1_Ex-PggShJAfTCzqo_c-2" value="" style="ellipse;whiteSpace=wrap;html=1;aspect=fixed;strokeWidth=1;fillColor=#f5f5f5;strokeColor=#666666;fontColor=#333333;" parent="1" vertex="1">
          <mxGeometry x="449" y="530" width="40" height="40" as="geometry" />
        </mxCell>
        <mxCell id="1_Ex-PggShJAfTCzqo_c-3" value="" style="rounded=0;whiteSpace=wrap;html=1;strokeColor=#6c8ebf;dashed=1;strokeWidth=2;fillColor=#dae8fc;" parent="1" vertex="1">
          <mxGeometry x="611" y="450" width="103" height="45" as="geometry" />
        </mxCell>
        <mxCell id="1_Ex-PggShJAfTCzqo_c-4" value="" style="rounded=0;whiteSpace=wrap;html=1;strokeColor=#6c8ebf;dashed=1;strokeWidth=2;fillColor=#dae8fc;" parent="1" vertex="1">
          <mxGeometry x="800" y="570" width="100" height="50" as="geometry" />
        </mxCell>
        <mxCell id="1_Ex-PggShJAfTCzqo_c-5" value="" style="rounded=0;whiteSpace=wrap;html=1;strokeColor=#6c8ebf;dashed=1;strokeWidth=2;fillColor=#dae8fc;" parent="1" vertex="1">
          <mxGeometry x="800" y="688" width="100" height="70" as="geometry" />
        </mxCell>
        <mxCell id="1_Ex-PggShJAfTCzqo_c-6" value="" style="rounded=0;whiteSpace=wrap;html=1;strokeColor=#6c8ebf;dashed=1;strokeWidth=2;fillColor=#dae8fc;" parent="1" vertex="1">
          <mxGeometry x="419" y="688" width="100" height="70" as="geometry" />
        </mxCell>
        <mxCell id="1_Ex-PggShJAfTCzqo_c-7" value="" style="rounded=0;whiteSpace=wrap;html=1;strokeColor=#6c8ebf;dashed=1;fillColor=#dae8fc;strokeWidth=2;" parent="1" vertex="1">
          <mxGeometry x="419" y="570" width="100" height="50" as="geometry" />
        </mxCell>
        <mxCell id="1_Ex-PggShJAfTCzqo_c-8" value="club-service" style="rounded=1;whiteSpace=wrap;html=1;fillColor=#d5e8d4;strokeColor=#82b366;" parent="1" vertex="1">
          <mxGeometry x="429" y="580" width="78" height="30" as="geometry" />
        </mxCell>
        <mxCell id="1_Ex-PggShJAfTCzqo_c-9" value="player-service" style="rounded=1;whiteSpace=wrap;html=1;fillColor=#d5e8d4;strokeColor=#82b366;" parent="1" vertex="1">
          <mxGeometry x="810" y="580" width="80" height="30" as="geometry" />
        </mxCell>
        <mxCell id="1_Ex-PggShJAfTCzqo_c-10" value="club-service" style="rounded=1;whiteSpace=wrap;html=1;fillColor=#f5f5f5;strokeColor=#666666;fontColor=#333333;" parent="1" vertex="1">
          <mxGeometry x="369" y="550" width="200" height="20" as="geometry" />
        </mxCell>
        <mxCell id="1_Ex-PggShJAfTCzqo_c-11" value="player-service" style="rounded=1;whiteSpace=wrap;html=1;fillColor=#f5f5f5;strokeColor=#666666;fontColor=#333333;" parent="1" vertex="1">
          <mxGeometry x="750" y="550" width="200" height="20" as="geometry" />
        </mxCell>
        <mxCell id="1_Ex-PggShJAfTCzqo_c-12" value="mongo:latest" style="shadow=0;dashed=0;html=1;strokeColor=none;labelPosition=center;verticalLabelPosition=bottom;verticalAlign=top;outlineConnect=0;align=center;shape=mxgraph.office.databases.database;fillColor=#7FBA42;" parent="1" vertex="1">
          <mxGeometry x="836.13" y="698" width="23.63" height="30" as="geometry" />
        </mxCell>
        <mxCell id="1_Ex-PggShJAfTCzqo_c-13" value="mysql:latest" style="shadow=0;dashed=0;html=1;strokeColor=none;labelPosition=center;verticalLabelPosition=bottom;verticalAlign=top;outlineConnect=0;align=center;shape=mxgraph.office.databases.database;fillColor=#2072B8;" parent="1" vertex="1">
          <mxGeometry x="459" y="698" width="21.75" height="29.5" as="geometry" />
        </mxCell>
        <mxCell id="1_Ex-PggShJAfTCzqo_c-14" style="edgeStyle=orthogonalEdgeStyle;rounded=0;orthogonalLoop=1;jettySize=auto;html=1;exitX=1;exitY=0.5;exitDx=0;exitDy=0;entryX=0.5;entryY=0;entryDx=0;entryDy=0;dashed=1;dashPattern=1 1;" parent="1" source="1_Ex-PggShJAfTCzqo_c-16" target="1_Ex-PggShJAfTCzqo_c-1" edge="1">
          <mxGeometry relative="1" as="geometry" />
        </mxCell>
        <mxCell id="1_Ex-PggShJAfTCzqo_c-15" style="edgeStyle=orthogonalEdgeStyle;rounded=0;orthogonalLoop=1;jettySize=auto;html=1;exitX=0;exitY=0.5;exitDx=0;exitDy=0;entryX=0.5;entryY=0;entryDx=0;entryDy=0;dashed=1;dashPattern=1 1;" parent="1" source="1_Ex-PggShJAfTCzqo_c-16" target="1_Ex-PggShJAfTCzqo_c-2" edge="1">
          <mxGeometry relative="1" as="geometry" />
        </mxCell>
        <mxCell id="1_Ex-PggShJAfTCzqo_c-16" value="transfer-service" style="rounded=1;whiteSpace=wrap;html=1;fillColor=#d5e8d4;strokeColor=#82b366;" parent="1" vertex="1">
          <mxGeometry x="620.5" y="450" width="80" height="30" as="geometry" />
        </mxCell>
        <mxCell id="1_Ex-PggShJAfTCzqo_c-17" value="" style="ellipse;whiteSpace=wrap;html=1;aspect=fixed;strokeWidth=1;fillColor=#f5f5f5;strokeColor=#666666;fontColor=#333333;" parent="1" vertex="1">
          <mxGeometry x="642.5" y="410" width="40" height="40" as="geometry" />
        </mxCell>
        <mxCell id="1_Ex-PggShJAfTCzqo_c-18" value="transfer-service" style="rounded=1;whiteSpace=wrap;html=1;fillColor=#f5f5f5;strokeColor=#666666;fontColor=#333333;" parent="1" vertex="1">
          <mxGeometry x="550.5" y="430" width="220" height="20" as="geometry" />
        </mxCell>
        <mxCell id="1_Ex-PggShJAfTCzqo_c-19" value="" style="pointerEvents=1;shadow=0;dashed=0;html=1;strokeColor=none;fillColor=#505050;labelPosition=center;verticalLabelPosition=bottom;verticalAlign=top;outlineConnect=0;align=center;shape=mxgraph.office.devices.cell_phone_android_standalone;" parent="1" vertex="1">
          <mxGeometry x="426" y="200" width="16" height="34" as="geometry" />
        </mxCell>
        <mxCell id="1_Ex-PggShJAfTCzqo_c-20" value="&lt;div&gt;ports:&lt;/div&gt;&lt;div&gt;8082:&lt;span style=&quot;background-color: initial;&quot;&gt;8082&lt;/span&gt;&lt;/div&gt;" style="text;html=1;strokeColor=none;fillColor=none;align=right;verticalAlign=middle;whiteSpace=wrap;rounded=0;" parent="1" vertex="1">
          <mxGeometry x="340" y="520" width="109" height="30" as="geometry" />
        </mxCell>
        <mxCell id="1_Ex-PggShJAfTCzqo_c-21" value="&lt;div&gt;ports:&lt;/div&gt;&lt;div&gt;8081:&lt;span style=&quot;background-color: initial;&quot;&gt;8081&lt;/span&gt;&lt;/div&gt;" style="text;html=1;strokeColor=none;fillColor=none;align=left;verticalAlign=middle;whiteSpace=wrap;rounded=0;" parent="1" vertex="1">
          <mxGeometry x="870" y="520" width="109" height="30" as="geometry" />
        </mxCell>
        <mxCell id="1_Ex-PggShJAfTCzqo_c-22" value="POD" style="rounded=0;whiteSpace=wrap;html=1;strokeColor=#6c8ebf;dashed=1;fillColor=#dae8fc;strokeWidth=2;" parent="1" vertex="1">
          <mxGeometry x="109.38" y="147" width="48" height="25" as="geometry" />
        </mxCell>
        <mxCell id="1_Ex-PggShJAfTCzqo_c-23" value="service" style="rounded=1;whiteSpace=wrap;html=1;fillColor=#f5f5f5;strokeColor=#666666;fontColor=#333333;" parent="1" vertex="1">
          <mxGeometry x="108.5" y="127" width="50" height="20" as="geometry" />
        </mxCell>
        <mxCell id="1_Ex-PggShJAfTCzqo_c-24" value="" style="ellipse;whiteSpace=wrap;html=1;aspect=fixed;strokeWidth=1;fillColor=#f5f5f5;strokeColor=#666666;fontColor=#333333;" parent="1" vertex="1">
          <mxGeometry x="448.88" y="648" width="40" height="40" as="geometry" />
        </mxCell>
        <mxCell id="1_Ex-PggShJAfTCzqo_c-25" value="mysql-club" style="rounded=1;whiteSpace=wrap;html=1;fillColor=#f5f5f5;strokeColor=#666666;fontColor=#333333;" parent="1" vertex="1">
          <mxGeometry x="368.88" y="668" width="200.12" height="20" as="geometry" />
        </mxCell>
        <mxCell id="1_Ex-PggShJAfTCzqo_c-26" value="&lt;div&gt;&lt;span&gt;ports:&amp;nbsp;&lt;/span&gt;&lt;br&gt;&lt;/div&gt;3307:3306" style="text;html=1;strokeColor=none;fillColor=none;align=right;verticalAlign=middle;whiteSpace=wrap;rounded=0;" parent="1" vertex="1">
          <mxGeometry x="320" y="638" width="109" height="30" as="geometry" />
        </mxCell>
        <mxCell id="1_Ex-PggShJAfTCzqo_c-27" value="" style="endArrow=classic;startArrow=classic;html=1;exitX=0.5;exitY=1;exitDx=0;exitDy=0;entryX=0.5;entryY=0;entryDx=0;entryDy=0;" parent="1" source="1_Ex-PggShJAfTCzqo_c-7" target="1_Ex-PggShJAfTCzqo_c-24" edge="1">
          <mxGeometry width="50" height="50" relative="1" as="geometry">
            <mxPoint x="739" y="620" as="sourcePoint" />
            <mxPoint x="759" y="650" as="targetPoint" />
          </mxGeometry>
        </mxCell>
        <mxCell id="1_Ex-PggShJAfTCzqo_c-28" value="" style="ellipse;whiteSpace=wrap;html=1;aspect=fixed;strokeWidth=1;fillColor=#f5f5f5;strokeColor=#666666;fontColor=#333333;" parent="1" vertex="1">
          <mxGeometry x="829.88" y="648" width="40" height="40" as="geometry" />
        </mxCell>
        <mxCell id="1_Ex-PggShJAfTCzqo_c-29" value="mongo-players" style="rounded=1;whiteSpace=wrap;html=1;fillColor=#f5f5f5;strokeColor=#666666;fontColor=#333333;" parent="1" vertex="1">
          <mxGeometry x="749.88" y="668" width="200.12" height="20" as="geometry" />
        </mxCell>
        <mxCell id="1_Ex-PggShJAfTCzqo_c-30" value="&lt;div&gt;&lt;span&gt;ports:&amp;nbsp;&lt;/span&gt;&lt;br&gt;&lt;/div&gt;27017:27017" style="text;html=1;strokeColor=none;fillColor=none;align=right;verticalAlign=middle;whiteSpace=wrap;rounded=0;" parent="1" vertex="1">
          <mxGeometry x="720" y="638" width="109" height="30" as="geometry" />
        </mxCell>
        <mxCell id="1_Ex-PggShJAfTCzqo_c-31" value="" style="endArrow=classic;startArrow=classic;html=1;exitX=0.5;exitY=1;exitDx=0;exitDy=0;entryX=0.5;entryY=0;entryDx=0;entryDy=0;" parent="1" source="1_Ex-PggShJAfTCzqo_c-4" target="1_Ex-PggShJAfTCzqo_c-28" edge="1">
          <mxGeometry width="50" height="50" relative="1" as="geometry">
            <mxPoint x="570" y="630" as="sourcePoint" />
            <mxPoint x="569.8800000000001" y="658" as="targetPoint" />
          </mxGeometry>
        </mxCell>
        <mxCell id="1_Ex-PggShJAfTCzqo_c-33" value="&lt;div&gt;&lt;b&gt;&lt;font style=&quot;font-size: 15px&quot;&gt;Deployment of Order &amp;amp; Products microservices example with Docker Compose&lt;br&gt;+ Gateway&lt;/font&gt;&lt;/b&gt;&lt;/div&gt;" style="text;html=1;strokeColor=none;fillColor=none;align=center;verticalAlign=middle;whiteSpace=wrap;rounded=0;" parent="1" vertex="1">
          <mxGeometry x="82" y="40" width="698" height="20" as="geometry" />
        </mxCell>
        <mxCell id="1_Ex-PggShJAfTCzqo_c-34" style="edgeStyle=orthogonalEdgeStyle;rounded=0;orthogonalLoop=1;jettySize=auto;html=1;entryX=0;entryY=0.5;entryDx=0;entryDy=0;startArrow=classic;startFill=1;" parent="1" source="1_Ex-PggShJAfTCzqo_c-36" target="1_Ex-PggShJAfTCzqo_c-6" edge="1">
          <mxGeometry relative="1" as="geometry" />
        </mxCell>
        <mxCell id="1_Ex-PggShJAfTCzqo_c-35" value="/var/lib/mysql" style="edgeLabel;html=1;align=center;verticalAlign=middle;resizable=0;points=[];" parent="1_Ex-PggShJAfTCzqo_c-34" vertex="1" connectable="0">
          <mxGeometry x="-0.3395" y="-1" relative="1" as="geometry">
            <mxPoint x="18" as="offset" />
          </mxGeometry>
        </mxCell>
        <mxCell id="1_Ex-PggShJAfTCzqo_c-36" value="mysql_club_data" style="shape=cylinder3;whiteSpace=wrap;html=1;boundedLbl=1;backgroundOutline=1;size=5;verticalAlign=top;labelPosition=center;verticalLabelPosition=bottom;align=center;fillColor=#ffe6cc;strokeColor=#d79b00;" parent="1" vertex="1">
          <mxGeometry x="280" y="710.5" width="40" height="25" as="geometry" />
        </mxCell>
        <mxCell id="1_Ex-PggShJAfTCzqo_c-37" value="/data/db" style="edgeStyle=orthogonalEdgeStyle;rounded=0;orthogonalLoop=1;jettySize=auto;html=1;entryX=1;entryY=0.5;entryDx=0;entryDy=0;startArrow=classic;startFill=1;" parent="1" source="1_Ex-PggShJAfTCzqo_c-38" target="1_Ex-PggShJAfTCzqo_c-5" edge="1">
          <mxGeometry relative="1" as="geometry" />
        </mxCell>
        <mxCell id="1_Ex-PggShJAfTCzqo_c-38" value="mongodb_player_data" style="shape=cylinder3;whiteSpace=wrap;html=1;boundedLbl=1;backgroundOutline=1;size=5;verticalAlign=top;labelPosition=center;verticalLabelPosition=bottom;align=center;fillColor=#ffe6cc;strokeColor=#d79b00;" parent="1" vertex="1">
          <mxGeometry x="1000" y="710.5" width="40" height="25" as="geometry" />
        </mxCell>
        <mxCell id="1_Ex-PggShJAfTCzqo_c-39" value="container" style="rounded=1;whiteSpace=wrap;html=1;fillColor=#d5e8d4;strokeColor=#82b366;" parent="1" vertex="1">
          <mxGeometry x="40" y="149" width="59.5" height="23" as="geometry" />
        </mxCell>
        <mxCell id="1_Ex-PggShJAfTCzqo_c-40" value="volume" style="shape=cylinder3;whiteSpace=wrap;html=1;boundedLbl=1;backgroundOutline=1;size=5;verticalAlign=top;labelPosition=center;verticalLabelPosition=bottom;align=center;fillColor=#ffe6cc;strokeColor=#d79b00;" parent="1" vertex="1">
          <mxGeometry x="49.75" y="100" width="40" height="25" as="geometry" />
        </mxCell>
        <mxCell id="1_Ex-PggShJAfTCzqo_c-41" value="&lt;div&gt;&lt;b&gt;&amp;nbsp;api-gateway:&lt;/b&gt;&lt;/div&gt;&lt;div&gt;&amp;nbsp; depends_on:&lt;/div&gt;&lt;div&gt;&amp;nbsp; &amp;nbsp; - transfer-service&lt;/div&gt;&lt;div&gt;&amp;nbsp; &amp;nbsp; - player-service&lt;/div&gt;&lt;div&gt;&amp;nbsp; &amp;nbsp; - club-service&lt;/div&gt;&lt;div&gt;&amp;nbsp; &amp;nbsp; - match-service&lt;/div&gt;&lt;div&gt;&lt;span style=&quot;background-color: rgb(213, 232, 212);&quot;&gt;&amp;nbsp; image:&amp;nbsp;&lt;/span&gt;&lt;/div&gt;&amp;nbsp; &amp;nbsp; - enre0333/ede-api-gateway&lt;div&gt;&amp;nbsp; ports:&lt;/div&gt;&lt;div&gt;&amp;nbsp; &amp;nbsp; - 8084:8084&lt;/div&gt;&lt;div&gt;&amp;nbsp; links:&lt;/div&gt;&lt;div&gt;&amp;nbsp; &amp;nbsp; - transfer-service&lt;/div&gt;&lt;div&gt;&amp;nbsp; &amp;nbsp; - player-service&lt;/div&gt;&lt;div&gt;&amp;nbsp; &amp;nbsp; - club-service&lt;/div&gt;&lt;div&gt;&amp;nbsp; &amp;nbsp; - match-service&lt;/div&gt;&lt;div&gt;&amp;nbsp;&amp;nbsp;environment:&lt;br&gt;&lt;/div&gt;&lt;div&gt;&amp;nbsp; &amp;nbsp;MATCH_SERVICE_BASEURL: match-service:8080&lt;/div&gt;&lt;div&gt;&amp;nbsp; &amp;nbsp;PLAYER_SERVICE_BASEURL: player-service:8081&lt;/div&gt;&lt;div&gt;&amp;nbsp; &amp;nbsp;TRANSFER_SERVICE_BASEURL: transfer-service:8083&lt;/div&gt;&lt;div&gt;&amp;nbsp; &amp;nbsp;CLUB_SERVICE_BASEURL:club-service:8082&lt;/div&gt;" style="text;html=1;align=left;verticalAlign=middle;resizable=0;points=[];autosize=1;strokeColor=#666666;fillColor=#f5f5f5;fontColor=#333333;" parent="1" vertex="1">
          <mxGeometry x="750" y="9.5" width="340" height="300" as="geometry" />
        </mxCell>
        <mxCell id="1_Ex-PggShJAfTCzqo_c-42" value="" style="rounded=0;whiteSpace=wrap;html=1;strokeColor=#6c8ebf;dashed=1;strokeWidth=2;fillColor=#dae8fc;" parent="1" vertex="1">
          <mxGeometry x="612.5" y="616" width="100" height="70" as="geometry" />
        </mxCell>
        <mxCell id="1_Ex-PggShJAfTCzqo_c-43" value="mysql:latest" style="shadow=0;dashed=0;html=1;strokeColor=none;labelPosition=center;verticalLabelPosition=bottom;verticalAlign=top;outlineConnect=0;align=center;shape=mxgraph.office.databases.database;fillColor=#2072B8;" parent="1" vertex="1">
          <mxGeometry x="652.5" y="626" width="21.75" height="29.5" as="geometry" />
        </mxCell>
        <mxCell id="1_Ex-PggShJAfTCzqo_c-44" style="edgeStyle=orthogonalEdgeStyle;rounded=0;orthogonalLoop=1;jettySize=auto;html=1;exitX=0.5;exitY=0;exitDx=0;exitDy=0;entryX=0.5;entryY=1;entryDx=0;entryDy=0;" parent="1" source="1_Ex-PggShJAfTCzqo_c-45" edge="1">
          <mxGeometry relative="1" as="geometry">
            <mxPoint x="662" y="490" as="targetPoint" />
          </mxGeometry>
        </mxCell>
        <mxCell id="1_Ex-PggShJAfTCzqo_c-45" value="" style="ellipse;whiteSpace=wrap;html=1;aspect=fixed;strokeWidth=1;fillColor=#f5f5f5;strokeColor=#666666;fontColor=#333333;" parent="1" vertex="1">
          <mxGeometry x="642.38" y="576" width="40" height="40" as="geometry" />
        </mxCell>
        <mxCell id="1_Ex-PggShJAfTCzqo_c-46" value="mysql-transfer" style="rounded=1;whiteSpace=wrap;html=1;fillColor=#f5f5f5;strokeColor=#666666;fontColor=#333333;" parent="1" vertex="1">
          <mxGeometry x="562.38" y="596" width="200.12" height="20" as="geometry" />
        </mxCell>
        <mxCell id="1_Ex-PggShJAfTCzqo_c-47" value="&lt;div&gt;&lt;span&gt;ports:&amp;nbsp;&lt;/span&gt;&lt;br&gt;&lt;/div&gt;3306:3306" style="text;html=1;strokeColor=none;fillColor=none;align=right;verticalAlign=middle;whiteSpace=wrap;rounded=0;" parent="1" vertex="1">
          <mxGeometry x="513.5" y="566" width="109" height="30" as="geometry" />
        </mxCell>
        <mxCell id="1_Ex-PggShJAfTCzqo_c-48" style="edgeStyle=orthogonalEdgeStyle;rounded=0;orthogonalLoop=1;jettySize=auto;html=1;entryX=0.5;entryY=1;entryDx=0;entryDy=0;startArrow=classic;startFill=1;" parent="1" source="1_Ex-PggShJAfTCzqo_c-50" target="1_Ex-PggShJAfTCzqo_c-42" edge="1">
          <mxGeometry relative="1" as="geometry" />
        </mxCell>
        <mxCell id="1_Ex-PggShJAfTCzqo_c-49" value="/var/lib/mysql" style="edgeLabel;html=1;align=center;verticalAlign=middle;resizable=0;points=[];" parent="1_Ex-PggShJAfTCzqo_c-48" vertex="1" connectable="0">
          <mxGeometry x="-0.3395" y="-1" relative="1" as="geometry">
            <mxPoint x="18" as="offset" />
          </mxGeometry>
        </mxCell>
        <mxCell id="1_Ex-PggShJAfTCzqo_c-50" value="mysql_transfer_data" style="shape=cylinder3;whiteSpace=wrap;html=1;boundedLbl=1;backgroundOutline=1;size=5;verticalAlign=top;labelPosition=center;verticalLabelPosition=bottom;align=center;fillColor=#ffe6cc;strokeColor=#d79b00;" parent="1" vertex="1">
          <mxGeometry x="642.38" y="742" width="40" height="25" as="geometry" />
        </mxCell>
        <mxCell id="1_Ex-PggShJAfTCzqo_c-51" value="" style="rounded=0;whiteSpace=wrap;html=1;strokeColor=#6c8ebf;dashed=1;strokeWidth=2;fillColor=#dae8fc;" parent="1" vertex="1">
          <mxGeometry x="222" y="312" width="420" height="50" as="geometry" />
        </mxCell>
        <mxCell id="1_Ex-PggShJAfTCzqo_c-54" value="api-gateway" style="rounded=1;whiteSpace=wrap;html=1;fillColor=#d5e8d4;strokeColor=#82b366;" parent="1" vertex="1">
          <mxGeometry x="232" y="322" width="400" height="30" as="geometry" />
        </mxCell>
        <mxCell id="1_Ex-PggShJAfTCzqo_c-55" value="" style="ellipse;whiteSpace=wrap;html=1;aspect=fixed;strokeWidth=1;fillColor=#f5f5f5;strokeColor=#666666;fontColor=#333333;" parent="1" vertex="1">
          <mxGeometry x="414" y="272" width="40" height="40" as="geometry" />
        </mxCell>
        <mxCell id="1_Ex-PggShJAfTCzqo_c-56" value="api-gateway" style="rounded=1;whiteSpace=wrap;html=1;fillColor=#f5f5f5;strokeColor=#666666;fontColor=#333333;" parent="1" vertex="1">
          <mxGeometry x="142" y="292" width="580" height="20" as="geometry" />
        </mxCell>
        <mxCell id="1_Ex-PggShJAfTCzqo_c-57" value="&lt;div&gt;external port: auto-generated&lt;/div&gt;&lt;div&gt;ports: 8084:&lt;span style=&quot;background-color: initial;&quot;&gt;8084&lt;/span&gt;&lt;/div&gt;" style="text;html=1;strokeColor=none;fillColor=none;align=right;verticalAlign=middle;whiteSpace=wrap;rounded=0;" parent="1" vertex="1">
          <mxGeometry x="220.88" y="250" width="178" height="30" as="geometry" />
        </mxCell>
        <mxCell id="1_Ex-PggShJAfTCzqo_c-58" value="" style="endArrow=classic;startArrow=classic;html=1;rounded=0;exitX=0.5;exitY=0;exitDx=0;exitDy=0;" parent="1" source="1_Ex-PggShJAfTCzqo_c-55" target="1_Ex-PggShJAfTCzqo_c-19" edge="1">
          <mxGeometry width="50" height="50" relative="1" as="geometry">
            <mxPoint x="490" y="260" as="sourcePoint" />
            <mxPoint x="540" y="210" as="targetPoint" />
          </mxGeometry>
        </mxCell>
        <mxCell id="1_Ex-PggShJAfTCzqo_c-59" value="Endpoints:&lt;br&gt;GET /clubs -&amp;gt; Get all clubs&lt;br&gt;GET /matches -&amp;gt; Get all matches&lt;br style=&quot;border-color: var(--border-color);&quot;&gt;GET /players -&amp;gt; Get all clubs&lt;br&gt;GET /transfers -&amp;gt; Get all Transfers&lt;br&gt;GET /club -&amp;gt; Get one club&lt;br&gt;GET /player -&amp;gt; Get one player&lt;br style=&quot;border-color: var(--border-color);&quot;&gt;POST /club -&amp;gt; create a club&lt;br&gt;POST /transfer -&amp;gt; create a transfer&lt;br&gt;POST /player -&amp;gt; create a player&lt;br&gt;POST /match -&amp;gt; create a match&lt;br&gt;PUT /club -&amp;gt; update a club&lt;br&gt;DELETE /match -&amp;gt; delete a match&lt;br&gt;DELETE /player -&amp;gt; delete a player" style="text;html=1;strokeColor=none;fillColor=none;align=left;verticalAlign=middle;whiteSpace=wrap;rounded=0;" parent="1" vertex="1">
          <mxGeometry x="480.75" y="70" width="240" height="210" as="geometry" />
        </mxCell>
        <mxCell id="tl4Apbhaj_LTGORyH-z2-3" value="" style="ellipse;whiteSpace=wrap;html=1;aspect=fixed;strokeWidth=1;fillColor=#f5f5f5;strokeColor=#666666;fontColor=#333333;" parent="1" vertex="1">
          <mxGeometry x="110" y="458" width="40" height="40" as="geometry" />
        </mxCell>
        <mxCell id="tl4Apbhaj_LTGORyH-z2-4" value="" style="rounded=0;whiteSpace=wrap;html=1;strokeColor=#6c8ebf;dashed=1;strokeWidth=2;fillColor=#dae8fc;" parent="1" vertex="1">
          <mxGeometry x="80" y="498" width="100" height="50" as="geometry" />
        </mxCell>
        <mxCell id="tl4Apbhaj_LTGORyH-z2-5" value="" style="rounded=0;whiteSpace=wrap;html=1;strokeColor=#6c8ebf;dashed=1;strokeWidth=2;fillColor=#dae8fc;" parent="1" vertex="1">
          <mxGeometry x="80" y="616" width="100" height="70" as="geometry" />
        </mxCell>
        <mxCell id="tl4Apbhaj_LTGORyH-z2-6" value="match-service" style="rounded=1;whiteSpace=wrap;html=1;fillColor=#d5e8d4;strokeColor=#82b366;" parent="1" vertex="1">
          <mxGeometry x="90" y="508" width="80" height="30" as="geometry" />
        </mxCell>
        <mxCell id="tl4Apbhaj_LTGORyH-z2-7" value="match-service" style="rounded=1;whiteSpace=wrap;html=1;fillColor=#f5f5f5;strokeColor=#666666;fontColor=#333333;" parent="1" vertex="1">
          <mxGeometry x="30" y="478" width="200" height="20" as="geometry" />
        </mxCell>
        <mxCell id="tl4Apbhaj_LTGORyH-z2-8" value="mongo:latest" style="shadow=0;dashed=0;html=1;strokeColor=none;labelPosition=center;verticalLabelPosition=bottom;verticalAlign=top;outlineConnect=0;align=center;shape=mxgraph.office.databases.database;fillColor=#7FBA42;" parent="1" vertex="1">
          <mxGeometry x="116.13" y="626" width="23.63" height="30" as="geometry" />
        </mxCell>
        <mxCell id="tl4Apbhaj_LTGORyH-z2-9" value="&lt;div&gt;ports:&lt;/div&gt;&lt;div&gt;8080:&lt;span style=&quot;background-color: initial;&quot;&gt;8080&lt;/span&gt;&lt;/div&gt;" style="text;html=1;strokeColor=none;fillColor=none;align=left;verticalAlign=middle;whiteSpace=wrap;rounded=0;" parent="1" vertex="1">
          <mxGeometry x="150" y="448" width="109" height="30" as="geometry" />
        </mxCell>
        <mxCell id="tl4Apbhaj_LTGORyH-z2-10" value="" style="ellipse;whiteSpace=wrap;html=1;aspect=fixed;strokeWidth=1;fillColor=#f5f5f5;strokeColor=#666666;fontColor=#333333;" parent="1" vertex="1">
          <mxGeometry x="109.88" y="576" width="40" height="40" as="geometry" />
        </mxCell>
        <mxCell id="tl4Apbhaj_LTGORyH-z2-11" value="mongo-matches" style="rounded=1;whiteSpace=wrap;html=1;fillColor=#f5f5f5;strokeColor=#666666;fontColor=#333333;" parent="1" vertex="1">
          <mxGeometry x="29.879999999999995" y="596" width="200.12" height="20" as="geometry" />
        </mxCell>
        <mxCell id="tl4Apbhaj_LTGORyH-z2-12" value="" style="endArrow=classic;startArrow=classic;html=1;exitX=0.5;exitY=1;exitDx=0;exitDy=0;entryX=0.5;entryY=0;entryDx=0;entryDy=0;" parent="1" source="tl4Apbhaj_LTGORyH-z2-4" target="tl4Apbhaj_LTGORyH-z2-10" edge="1">
          <mxGeometry width="50" height="50" relative="1" as="geometry">
            <mxPoint x="-150" y="558" as="sourcePoint" />
            <mxPoint x="-150.1199999999999" y="586" as="targetPoint" />
          </mxGeometry>
        </mxCell>
        <mxCell id="tl4Apbhaj_LTGORyH-z2-13" value="/data/db" style="edgeStyle=orthogonalEdgeStyle;rounded=0;orthogonalLoop=1;jettySize=auto;html=1;entryX=1;entryY=0.5;entryDx=0;entryDy=0;startArrow=classic;startFill=1;" parent="1" source="tl4Apbhaj_LTGORyH-z2-14" target="tl4Apbhaj_LTGORyH-z2-5" edge="1">
          <mxGeometry relative="1" as="geometry" />
        </mxCell>
        <mxCell id="tl4Apbhaj_LTGORyH-z2-14" value="mongodb_match_data" style="shape=cylinder3;whiteSpace=wrap;html=1;boundedLbl=1;backgroundOutline=1;size=5;verticalAlign=top;labelPosition=center;verticalLabelPosition=bottom;align=center;fillColor=#ffe6cc;strokeColor=#d79b00;" parent="1" vertex="1">
          <mxGeometry x="280" y="638.5" width="40" height="25" as="geometry" />
        </mxCell>
        <mxCell id="tl4Apbhaj_LTGORyH-z2-16" value="&lt;div&gt;&lt;span&gt;ports:&amp;nbsp;&lt;/span&gt;&lt;br&gt;&lt;/div&gt;27017:27017" style="text;html=1;strokeColor=none;fillColor=none;align=right;verticalAlign=middle;whiteSpace=wrap;rounded=0;" parent="1" vertex="1">
          <mxGeometry x="-9.5" y="566" width="109" height="30" as="geometry" />
        </mxCell>
        <mxCell id="tl4Apbhaj_LTGORyH-z2-17" value="" style="edgeStyle=orthogonalEdgeStyle;rounded=0;orthogonalLoop=1;jettySize=auto;html=1;entryX=0;entryY=0;entryDx=0;entryDy=0;" parent="1" target="1_Ex-PggShJAfTCzqo_c-2" edge="1">
          <mxGeometry relative="1" as="geometry">
            <Array as="points">
              <mxPoint x="455" y="352" />
            </Array>
            <mxPoint x="455" y="352" as="sourcePoint" />
            <mxPoint x="864" y="536" as="targetPoint" />
          </mxGeometry>
        </mxCell>
        <mxCell id="1_Ex-PggShJAfTCzqo_c-32" value="&lt;div&gt;&lt;span style=&quot;background-color: initial;&quot;&gt;ports: 8083&lt;/span&gt;&lt;span style=&quot;background-color: initial;&quot;&gt;:&lt;/span&gt;&lt;span style=&quot;background-color: initial;&quot;&gt;8083&lt;/span&gt;&lt;/div&gt;" style="text;html=1;strokeColor=none;fillColor=none;align=right;verticalAlign=middle;whiteSpace=wrap;rounded=0;" parent="1" vertex="1">
          <mxGeometry x="464.5" y="414" width="178" height="20" as="geometry" />
        </mxCell>
        <mxCell id="tl4Apbhaj_LTGORyH-z2-18" value="" style="edgeStyle=orthogonalEdgeStyle;rounded=0;orthogonalLoop=1;jettySize=auto;html=1;entryX=1;entryY=0;entryDx=0;entryDy=0;" parent="1" source="1_Ex-PggShJAfTCzqo_c-51" target="1_Ex-PggShJAfTCzqo_c-1" edge="1">
          <mxGeometry relative="1" as="geometry">
            <Array as="points">
              <mxPoint x="864" y="362" />
            </Array>
            <mxPoint x="650" y="360" as="sourcePoint" />
            <mxPoint x="465" y="546" as="targetPoint" />
          </mxGeometry>
        </mxCell>
        <mxCell id="tl4Apbhaj_LTGORyH-z2-19" value="" style="edgeStyle=orthogonalEdgeStyle;rounded=0;orthogonalLoop=1;jettySize=auto;html=1;entryX=0.5;entryY=0;entryDx=0;entryDy=0;" parent="1" target="tl4Apbhaj_LTGORyH-z2-3" edge="1">
          <mxGeometry relative="1" as="geometry">
            <Array as="points">
              <mxPoint x="130" y="354" />
            </Array>
            <mxPoint x="280" y="354" as="sourcePoint" />
            <mxPoint x="280" y="538" as="targetPoint" />
          </mxGeometry>
        </mxCell>
        <mxCell id="tl4Apbhaj_LTGORyH-z2-20" value="" style="edgeStyle=orthogonalEdgeStyle;rounded=0;orthogonalLoop=1;jettySize=auto;html=1;entryX=0.5;entryY=0;entryDx=0;entryDy=0;" parent="1" source="1_Ex-PggShJAfTCzqo_c-51" target="1_Ex-PggShJAfTCzqo_c-17" edge="1">
          <mxGeometry relative="1" as="geometry">
            <Array as="points">
              <mxPoint x="560" y="372" />
              <mxPoint x="663" y="372" />
            </Array>
            <mxPoint x="652" y="372" as="sourcePoint" />
            <mxPoint x="874" y="546" as="targetPoint" />
          </mxGeometry>
        </mxCell>
        <mxCell id="E0Kz2hQuF3JX-YQXsJVL-1" value="Cloud" style="html=1;whiteSpace=wrap;strokeColor=none;fillColor=#0079D6;labelPosition=center;verticalLabelPosition=middle;verticalAlign=top;align=center;fontSize=12;outlineConnect=0;spacingTop=-6;fontColor=#FFFFFF;sketch=0;shape=mxgraph.sitemap.cloud;" parent="1" vertex="1">
          <mxGeometry x="33.13" y="222" width="83" height="50" as="geometry" />
        </mxCell>
        <mxCell id="E0Kz2hQuF3JX-YQXsJVL-2" value="" style="edgeStyle=orthogonalEdgeStyle;rounded=0;orthogonalLoop=1;jettySize=auto;html=1;" parent="1" target="E0Kz2hQuF3JX-YQXsJVL-1" edge="1">
          <mxGeometry relative="1" as="geometry">
            <Array as="points">
              <mxPoint x="170" y="306" />
              <mxPoint x="170" y="230" />
            </Array>
            <mxPoint x="170" y="300" as="sourcePoint" />
            <mxPoint x="72" y="410" as="targetPoint" />
          </mxGeometry>
        </mxCell>
        <mxCell id="E0Kz2hQuF3JX-YQXsJVL-3" value="Google cloud platform&lt;br&gt;&amp;nbsp; &amp;nbsp; &amp;nbsp; &amp;nbsp; &amp;nbsp; &amp;nbsp;0Auth2" style="text;html=1;strokeColor=none;fillColor=none;align=left;verticalAlign=middle;whiteSpace=wrap;rounded=0;" parent="1" vertex="1">
          <mxGeometry x="18.999999999999993" y="184" width="240" height="38" as="geometry" />
        </mxCell>
        <mxCell id="mxs_m1UhEm-IB-wUmCAv-1" style="edgeStyle=orthogonalEdgeStyle;rounded=0;orthogonalLoop=1;jettySize=auto;html=1;exitX=1;exitY=0.25;exitDx=0;exitDy=0;entryX=0;entryY=0.25;entryDx=0;entryDy=0;dashed=1;dashPattern=1 1;" edge="1" parent="1" source="tl4Apbhaj_LTGORyH-z2-7" target="1_Ex-PggShJAfTCzqo_c-11">
          <mxGeometry relative="1" as="geometry">
            <mxPoint x="631" y="475" as="sourcePoint" />
            <mxPoint x="479" y="540" as="targetPoint" />
            <Array as="points">
              <mxPoint x="490" y="483" />
              <mxPoint x="490" y="510" />
              <mxPoint x="750" y="510" />
            </Array>
          </mxGeometry>
        </mxCell>
        <mxCell id="mxs_m1UhEm-IB-wUmCAv-2" style="edgeStyle=orthogonalEdgeStyle;rounded=0;orthogonalLoop=1;jettySize=auto;html=1;exitX=1;exitY=0.5;exitDx=0;exitDy=0;dashed=1;dashPattern=1 1;" edge="1" parent="1" source="1_Ex-PggShJAfTCzqo_c-10" target="1_Ex-PggShJAfTCzqo_c-11">
          <mxGeometry relative="1" as="geometry">
            <mxPoint x="631" y="475" as="sourcePoint" />
            <mxPoint x="479" y="540" as="targetPoint" />
          </mxGeometry>
        </mxCell>
      </root>
    </mxGraphModel>
  </diagram>
</mxfile>
